<?xml version="1.0" encoding="utf-8"?>
<!-- Generator: Adobe Illustrator 23.0.5, SVG Export Plug-In . SVG Version: 6.00 Build 0)  -->
<svg version="1.1" id="Capa_1" xmlns="http://www.w3.org/2000/svg" xmlns:xlink="http://www.w3.org/1999/xlink" x="0px" y="0px"
	 viewBox="0 0 245 238" style="enable-background:new 0 0 245 238;" xml:space="preserve">
<style type="text/css">
	.st0{fill:#FF590C;}
	.st1{fill:#00BCF2;}
</style>
<path class="st0" d="M104.4,88.1c0.5,0,0.7-0.4,1-0.7c19.9-19.9,39.8-39.8,59.7-59.7c7.3-7.3,18.4-8.8,27.6-3.7
	c8.8,4.9,13.3,15.4,10.8,25.3c-1,4.2-3.1,7.8-6.2,10.9c-10.7,10.7-21.3,21.3-32,32c-9.1,9.1-9.1,23.4,0,32.4
	c10.6,10.6,21.2,21.2,31.9,31.9c6,6,8.1,13.2,6.5,21.5c-1.8,9-9.7,16.3-18.8,17.6c-7.8,1-14.5-1.2-20.1-6.8
	c-10.4-10.4-20.8-20.8-31.2-31.2c-0.3-0.3-0.5-0.6-0.9-0.7c-0.1-0.4-0.4-0.6-0.7-0.8c-7.5-7.5-15.1-15.1-22.6-22.6
	c-3.4-3.5-7-6.7-10.2-10.4c-3.3-3.8-5-8.4-5.3-13.4c-0.2-2.7,0.2-5.4,1-8c0.8-2.6,2-5.1,3.7-7.2c1.5-1.9,3.4-3.5,5.1-5.3
	C104,88.7,104.4,88.5,104.4,88.1"/>
<path class="st1" d="M104.4,88.1c0,0.4-0.4,0.7-0.7,0.9c-1.7,1.8-3.6,3.4-5.1,5.3c-1.7,2.1-2.9,4.6-3.7,7.2c-0.8,2.6-1.1,5.3-1,8
	c0.3,5,2,9.6,5.3,13.4c3.2,3.7,6.8,7,10.2,10.4c7.5,7.6,15.1,15.1,22.6,22.6c0.3,0.3,0.5,0.5,0.7,0.8c-4.6,4.6-9.2,9.2-13.8,13.9
	c-15.4,15.4-30.8,30.8-46.2,46.2c-6.1,6.1-13.5,8.5-21.9,6.5c-8.4-2-14.1-7.3-16.6-15.5c-2.7-8.8-0.5-16.7,6-23.2
	c10.5-10.6,21.1-21.1,31.7-31.7c9.1-9.1,9.4-23.1,0.4-32.2C63,111,53.4,101.7,44,92.2c-1.9-1.9-3.8-3.6-5.5-5.6
	C27.3,73,34.8,52.4,52.1,49.4c7.5-1.3,14.3,0.7,19.8,6.1c10.8,10.6,21.4,21.4,32.1,32C104.1,87.7,104.3,87.9,104.4,88.1"/>
<path class="st1" d="M24.1,161c0-2.5,1-4.6,2.8-6.4c4-4,8-8,11.9-11.9c3.5-3.5,3.5-8.8,0.1-12.3c-4-4.1-8.1-8.1-12.1-12.2
	c-3-3-3.5-7.6-1.2-11c2.2-3.4,6.5-4.8,10.4-3.3c1.2,0.4,2.2,1.1,3,2c8.2,8.2,16.4,16.4,24.6,24.6c3.3,3.4,3.4,8.8,0,12.2
	c-6.3,6.3-12.6,12.6-18.9,18.9c-1.9,1.9-3.8,3.8-5.7,5.7c-2.5,2.5-6.3,3.2-9.5,1.8C26.2,167.7,24.1,164.6,24.1,161"/>
<path class="st0" d="M219.8,83.8c0,2.4-0.9,4.5-2.6,6.2c-4,4-8,8-12,12c-3.7,3.6-3.7,9,0,12.6c4,4,8,8,11.9,11.9
	c3.5,3.5,3.6,9.1,0.1,12.5c-3.5,3.5-8.9,3.4-12.5-0.2c-8.1-8.1-16.1-16.1-24.2-24.2c-3.7-3.7-3.7-9.1,0-12.7
	c8.1-8.1,16.2-16.2,24.3-24.3c3.6-3.6,9.1-3.5,12.6,0.2C219,79.5,219.8,81.5,219.8,83.8"/>
</svg>
