<?xml version="1.0" encoding="utf-8"?>
<!-- Generator: Adobe Illustrator 15.0.0, SVG Export Plug-In . SVG Version: 6.00 Build 0)  -->
<!DOCTYPE svg PUBLIC "-//W3C//DTD SVG 1.1//EN" "http://www.w3.org/Graphics/SVG/1.1/DTD/svg11.dtd">
<svg version="1.1" id="Capa_1" xmlns="http://www.w3.org/2000/svg" xmlns:xlink="http://www.w3.org/1999/xlink" x="0px" y="0px"
	 width="776px" height="841.891px" viewBox="-91.86 0 776 841.891" enable-background="new -91.86 0 776 841.891"
	 xml:space="preserve">
<g>
	<polygon fill="#50307F" points="321.753,118.02 287.305,118.02 320.376,151.091 288.683,182.783 323.131,182.783 354.825,151.091 	
		"/>
	<polygon fill="#50307F" points="277.66,118.02 243.21,118.02 276.281,151.091 244.589,182.783 279.038,182.783 310.73,151.091 	"/>
	<path fill="#50307F" d="M298.328,786.33c-107.48,0-214.96,0-321.063,0c-17.913,0-23.425-5.512-23.425-23.425
		c0-170.867,0-341.734,0-511.224c0-19.291,2.756-30.315,24.803-27.559c12.402,1.377,12.402-6.89,12.402-15.158
		c0-41.338,0-81.299,0-122.638c0-26.181,5.512-31.692,30.315-31.692c184.647,0,369.293,0,552.561,0
		c26.185,0,28.939,4.134,28.939,30.314c0,39.961,0,79.922,0,119.882c0,12.402,2.758,20.669,17.914,19.292
		c17.914-2.756,20.669,6.889,20.669,22.047c0,172.245,0,344.491,0,516.735c0,16.536-4.134,22.049-22.047,22.049
		C513.291,786.33,405.809,786.33,298.328,786.33z M79.233,762.905c0-9.646,0-19.291,0-27.559c0-106.103,0-213.584,0-319.687
		c0-15.158,1.379-28.937,22.048-28.937c135.04,0,270.08,0,403.742,0c16.534,0,22.046,6.89,22.046,22.047c0,27.558,0,55.118,0,82.676
		c0,84.057,0,168.113,0,252.168c0,15.157,4.135,20.669,19.292,19.291c16.536-1.378,33.07-1.378,48.228,0
		c17.917,1.378,23.429-4.134,23.429-22.048c-1.378-157.086-1.378-314.175,0-469.883c0-19.292-4.134-24.803-23.429-24.803
		c-198.426,1.377-396.851,0-593.899,0c-17.913,0-23.425,4.133-23.425,23.425c1.377,157.086,1.377,314.175,1.377,471.261
		c0,6.891,0,13.779,0,20.67C13.091,762.905,44.784,762.905,79.233,762.905z M15.847,222.744c6.89,0,12.402,1.378,17.913,1.378
		c176.379,0,352.758,0,529.137,0c15.156,0,19.291-5.512,19.291-19.292c-1.379-33.071,0-64.764,0-97.834
		c0-27.559-1.379-28.937-30.315-28.937c-168.111,0-337.6,0-505.71,0c-5.512,0-11.023-1.378-15.158,0
		c-5.511,2.756-13.78,9.646-13.78,13.78C15.847,134.555,15.847,178.65,15.847,222.744z M317.62,410.148
		c0,118.505,0,235.631,0,352.757c57.874,0,114.37,0,170.866,0c15.159,0,19.292-4.134,19.292-19.291c0-60.629,0-121.261,0-181.891
		c0-45.473,0-90.946,0-135.041c0-8.267,0-16.535-12.401-16.535C436.124,410.148,378.25,410.148,317.62,410.148z M104.037,411.525
		c0,117.128,0,234.254,0,351.38c63.386,0,125.394,0,187.402,0c0-117.126,0-234.252,0-351.38
		C228.053,411.525,167.422,411.525,104.037,411.525z"/>
	<rect x="244.589" y="561.723" fill="#50307F" width="31.692" height="63.387"/>
	<rect x="334.155" y="561.723" fill="#50307F" width="31.693" height="63.387"/>
</g>
</svg>
