<?xml version="1.0" encoding="utf-8"?>
<!-- Generator: Adobe Illustrator 23.0.5, SVG Export Plug-In . SVG Version: 6.00 Build 0)  -->
<svg version="1.1" id="Capa_1" xmlns="http://www.w3.org/2000/svg" xmlns:xlink="http://www.w3.org/1999/xlink" x="0px" y="0px"
	 viewBox="0 0 686 271" style="enable-background:new 0 0 686 271;" xml:space="preserve">
<style type="text/css">
	.st0{fill:#FF590C;}
	.st1{clip-path:url(#SVGID_2_);fill:#FF590C;}
	.st2{clip-path:url(#SVGID_2_);fill:#00BCF2;}
</style>
<polygon class="st0" points="332.8,134.4 273.5,134.4 270.7,148.7 292.8,148.7 282,203.3 297.2,203.3 307.9,148.7 330.1,148.7 "/>
<g>
	<defs>
		<rect id="SVGID_1_" x="-52" y="-173" width="792" height="612"/>
	</defs>
	<clipPath id="SVGID_2_">
		<use xlink:href="#SVGID_1_"  style="overflow:visible;"/>
	</clipPath>
	<path class="st1" d="M358,179.9c5.4-3.3,8-7.9,8-13.7c0-5.1-1.7-8.9-5-11.4c-3.4-2.6-8.1-3.8-14.3-3.8c-8.8,0-16.1,2.9-21.9,8.8
		c-5.8,5.9-8.8,13.3-8.8,22.4c0,6.6,2.1,11.9,6.3,16c4.2,4.1,9.7,6.2,16.3,6.2c5.1,0,9.6-0.7,13.5-2.2c4-1.5,7.5-4.1,10.7-7.8
		l-7.8-8.3c-3.9,3.7-8.5,5.5-13.9,5.5c-5.8,0-9.3-2.4-10.5-7.2c2.6,0.4,5.1,0.6,7.6,0.6C346,184.8,352.6,183.2,358,179.9
		 M331.9,172.6c1.2-2.8,3.1-4.9,5.7-6.5c2.6-1.6,5.4-2.4,8.5-2.4c3.7,0,5.6,1.3,5.6,3.9c0,1.5-1.4,2.7-4.3,3.7
		c-2.9,1-6.7,1.4-11.5,1.4C334.2,172.7,332.9,172.7,331.9,172.6"/>
	<polygon class="st1" points="369.2,203.3 382.8,203.3 396,131.5 382.4,131.5 	"/>
	<path class="st1" d="M422.3,142.2h-13.3l-2.1,9.9h-8l-2.3,12.8h7.5l-4.6,21.4c-0.4,2.1-0.6,4.1-0.6,6.1c0,3.6,1.3,6.4,3.8,8.5
		c2.5,2,5.6,3.1,9.3,3.1c8.1,0,14.2-2.7,18.3-8.1l-7-8.3c-2.7,2.4-4.9,3.5-6.5,3.5c-2.6,0-3.8-1.4-3.6-4.3c0-1.4,0.2-2.9,0.6-4.7
		l3.6-17.2h14.8l2.4-12.8h-14.5L422.3,142.2z"/>
	<path class="st1" d="M477.4,155.2c-2.3-2.7-6.6-4.1-12.9-4.1c-8.4,0-15.2,2.8-20.5,8.5c-5.3,5.6-7.9,13.5-7.9,23.4
		c0,6.2,1.8,11.2,5.3,15.1c3.5,3.9,8.3,5.8,14.2,5.8c6.4,0,11-1.7,13.7-5.1l-0.9,4.7h12.7l9.5-51.2H478L477.4,155.2z M471.9,184.9
		c-1.2,1.8-2.8,3.3-4.9,4.4c-2.1,1.1-4.3,1.7-6.5,1.7c-2.9,0-5.3-0.9-7.2-2.8c-1.9-1.8-2.9-4.4-2.9-7.7c0-5.1,1.4-9.1,4.1-12.2
		c2.8-3.1,6.3-4.6,10.6-4.6c4.6,0,7.8,1.7,9.8,5.2L471.9,184.9z"/>
	<path class="st1" d="M527.8,151.2c-4.9,0-9.1,1.4-12.6,4.3l0.6-3.3h-13.3l-9.8,51.2H506l6.4-33.3c1.4-2,3.2-3.5,5.2-4.5
		c2-1,3.9-1.6,5.8-1.6c2.7,0,4.7,0.6,5.9,1.8c1.3,1.2,1.8,3.1,1.8,5.8c0,1.2-0.1,2.5-0.4,3.8l-5.6,28h13.6l5.7-28.6
		c0.5-2.6,0.8-5.3,0.8-8C545.2,156.4,539.4,151.2,527.8,151.2"/>
	<polygon class="st2" points="275.7,118.8 285.6,68.5 296.6,68.5 286.8,118.8 	"/>
	<polygon class="st2" points="340.4,118.8 331.8,118.8 313.4,87.9 307.4,118.8 296.6,118.8 306.4,68.5 314.8,68.5 333.3,99.5 
		339.3,68.5 350.1,68.5 	"/>
	<polygon class="st2" points="352.9,79 354.9,68.5 398.2,68.5 396.2,79 380,79 372.2,118.8 361.1,118.8 369,79 	"/>
	<polygon class="st2" points="393.1,118.8 402.9,68.5 441.3,68.5 439.3,79 412,79 410.1,88.3 435.6,88.3 433.6,98.3 408.1,98.3 
		406.1,108.4 434.1,108.4 432.1,118.8 	"/>
	<path class="st2" d="M450.7,118.8h-11l9.9-50.3h20.3c11.7,0,17.5,4.7,17.5,14.1c0,4.2-1.2,7.7-3.7,10.6c-2.4,2.9-5.6,5-9.4,6.4
		l10.3,19.2h-12.9l-8.9-17.2h-8.5L450.7,118.8z M467.5,79h-9l-2.4,12.3h9.4c3.1,0,5.5-0.6,7.4-1.9c1.8-1.3,2.8-3,2.8-5.2
		c0-1.8-0.6-3.1-1.9-3.9C472.6,79.4,470.5,79,467.5,79"/>
	<polygon class="st2" points="533,118.8 524.3,118.8 506,87.9 500,118.8 489.2,118.8 499,68.5 507.4,68.5 525.9,99.5 531.9,68.5 
		542.7,68.5 	"/>
	<polygon class="st2" points="542.3,118.8 552.2,68.5 590.5,68.5 588.5,79 561.2,79 559.3,88.3 584.8,88.3 582.8,98.3 557.4,98.3 
		555.4,108.4 583.3,108.4 581.3,118.8 	"/>
	<polygon class="st2" points="592.1,79 594.1,68.5 637.4,68.5 635.4,79 619.2,79 611.4,118.8 600.3,118.8 608.2,79 	"/>
	<path class="st1" d="M130.9,97.6c0.5,0,0.7-0.4,1-0.7c19.9-19.9,39.8-39.8,59.7-59.7c7.3-7.3,18.4-8.8,27.6-3.7
		c8.8,4.9,13.3,15.4,10.8,25.3c-1,4.2-3.1,7.8-6.2,10.9c-10.7,10.7-21.3,21.3-32,32c-9.1,9.1-9.1,23.4,0,32.4
		c10.6,10.6,21.2,21.2,31.9,31.9c6,6,8.1,13.2,6.5,21.5c-1.8,9-9.7,16.3-18.8,17.6c-7.8,1-14.5-1.2-20.1-6.8
		c-10.4-10.4-20.8-20.8-31.2-31.2c-0.3-0.3-0.5-0.6-0.9-0.7c-0.1-0.4-0.4-0.6-0.7-0.8c-7.5-7.5-15.1-15.1-22.6-22.6
		c-3.4-3.5-7-6.7-10.2-10.4c-3.3-3.8-5-8.4-5.3-13.4c-0.2-2.7,0.2-5.4,1-8c0.8-2.6,2-5.1,3.7-7.2c1.5-1.9,3.4-3.5,5.1-5.3
		C130.5,98.2,130.9,98,130.9,97.6"/>
	<path class="st2" d="M130.9,97.6c0,0.4-0.4,0.7-0.7,0.9c-1.7,1.8-3.6,3.4-5.1,5.3c-1.7,2.1-2.9,4.6-3.7,7.2c-0.8,2.6-1.1,5.3-1,8
		c0.3,5,2,9.6,5.3,13.4c3.2,3.7,6.8,7,10.2,10.4c7.5,7.6,15.1,15.1,22.6,22.6c0.3,0.3,0.5,0.5,0.7,0.8c-4.6,4.6-9.2,9.2-13.8,13.9
		c-15.4,15.4-30.8,30.8-46.2,46.2c-6.1,6.1-13.5,8.5-21.9,6.5c-8.4-2-14.1-7.3-16.6-15.5c-2.7-8.8-0.5-16.7,6-23.2
		c10.5-10.6,21.1-21.1,31.7-31.7c9.1-9.1,9.4-23.1,0.4-32.2c-9.4-9.6-18.9-19-28.4-28.5c-1.9-1.9-3.8-3.6-5.5-5.6
		c-11.2-13.5-3.7-34.1,13.6-37.1c7.5-1.3,14.3,0.7,19.8,6.1c10.8,10.6,21.4,21.4,32.1,32C130.6,97.2,130.7,97.4,130.9,97.6"/>
	<path class="st2" d="M50.6,170.5c0-2.5,1-4.6,2.8-6.4c4-4,8-8,11.9-11.9c3.5-3.5,3.5-8.8,0.1-12.3c-4-4.1-8.1-8.1-12.1-12.2
		c-3-3-3.5-7.6-1.2-11c2.2-3.4,6.5-4.8,10.4-3.3c1.2,0.4,2.2,1.1,3,2c8.2,8.2,16.4,16.4,24.6,24.6c3.3,3.4,3.4,8.8,0,12.2
		c-6.3,6.3-12.6,12.6-18.9,18.9c-1.9,1.9-3.8,3.8-5.7,5.7c-2.5,2.5-6.3,3.2-9.5,1.8C52.6,177.2,50.6,174.1,50.6,170.5"/>
	<path class="st1" d="M246.3,93.3c0,2.4-0.9,4.5-2.6,6.2c-4,4-8,8-12,12c-3.7,3.6-3.7,9,0,12.6c4,4,8,8,11.9,11.9
		c3.5,3.5,3.6,9.1,0.1,12.5c-3.5,3.5-8.9,3.4-12.5-0.2c-8.1-8.1-16.1-16.1-24.2-24.2c-3.7-3.7-3.7-9.1,0-12.7
		c8.1-8.1,16.2-16.2,24.3-24.3c3.6-3.6,9.1-3.5,12.6,0.2C245.5,88.9,246.3,91,246.3,93.3"/>
	<path class="st2" d="M294.8,233c-1.7,1.8-3.9,2.7-6.7,2.7c-2.4,0-4.2-0.7-5.7-2c-1.4-1.3-2.1-3-2.1-5.1c0-1.8,0.4-3.5,1.3-5
		c0.9-1.5,2.1-2.8,3.7-3.7c1.6-0.9,3.4-1.4,5.5-1.4c1.3,0,2.5,0.2,3.5,0.7c1,0.5,1.8,1.2,2.4,2.1l-1.6,1.3c-1.1-1.4-2.6-2-4.7-2
		c-2.3,0-4.1,0.7-5.6,2.2c-1.5,1.5-2.2,3.3-2.2,5.5c0,1.6,0.5,2.9,1.5,3.9c1,1,2.4,1.5,4.1,1.5c2.1,0,3.8-0.7,5.3-2.2L294.8,233z"/>
	<path class="st2" d="M302.2,224.9c1.5-1.5,3.3-2.2,5.3-2.2c1.6,0,2.9,0.5,3.9,1.5c1,1,1.5,2.2,1.5,3.7c0,2.3-0.7,4.2-2.1,5.7
		c-1.4,1.5-3.1,2.2-5.2,2.2c-1.7,0-3-0.5-4-1.4c-1-0.9-1.5-2.2-1.5-3.6C299.9,228.3,300.7,226.4,302.2,224.9 M302.9,232.8
		c0.7,0.7,1.6,1,2.7,1c1.3,0,2.5-0.5,3.5-1.6c1-1.1,1.5-2.4,1.5-4.1c0-1.1-0.3-2-1-2.6c-0.7-0.6-1.5-0.9-2.6-0.9
		c-1.3,0-2.5,0.5-3.6,1.6c-1.1,1.1-1.6,2.4-1.6,4C301.9,231.2,302.3,232.1,302.9,232.8"/>
	<path class="st2" d="M319.5,222.9h1.9l-0.3,1.6c1.2-1.2,2.7-1.8,4.4-1.8c1.2,0,2.2,0.3,2.9,1c0.7,0.7,1,1.6,1,2.8
		c0,0.6-0.1,1.4-0.3,2.3l-1.4,6.7h-1.9l1.4-6.6c0.1-1,0.2-1.6,0.2-1.9c0-1.6-0.8-2.4-2.4-2.4c-0.9,0-1.8,0.2-2.6,0.7
		c-0.8,0.5-1.4,1.1-1.9,1.9l-1.5,8.3h-1.9L319.5,222.9z"/>
	<path class="st2" d="M345,233.2c-0.6,0.8-1.4,1.4-2.3,1.8c-1,0.4-2,0.6-3,0.6c-1.6,0-2.8-0.5-3.8-1.4c-1-1-1.4-2.2-1.4-3.8
		c0-2.2,0.7-4,2.2-5.5c1.5-1.5,3.2-2.2,5.2-2.2c1.3,0,2.4,0.3,3.1,0.8c0.7,0.5,1.1,1.3,1.1,2.4c0,1.3-0.6,2.3-1.8,3.1
		c-1.2,0.8-2.8,1.2-4.9,1.2c-0.9,0-1.9-0.1-2.9-0.2v0.4c0,1.1,0.3,2,1,2.6c0.6,0.6,1.5,0.9,2.6,0.9c1.6,0,2.8-0.6,3.8-1.7L345,233.2
		z M338.7,225.6c-0.9,0.7-1.5,1.6-1.9,2.6c0.8,0.1,1.6,0.1,2.2,0.1c1.6,0,2.8-0.2,3.6-0.7c0.9-0.4,1.3-1,1.3-1.6
		c0-0.4-0.2-0.8-0.6-1.1c-0.4-0.3-1-0.4-1.7-0.4C340.6,224.6,339.6,224.9,338.7,225.6"/>
	<path class="st2" d="M361,233.3c-0.8,0.9-1.6,1.5-2.4,1.8c-0.8,0.3-1.8,0.5-2.8,0.5c-1.6,0-2.9-0.5-4-1.4c-1-1-1.6-2.2-1.6-3.8
		c0-2.2,0.7-4.1,2.1-5.5c1.4-1.5,3.2-2.2,5.3-2.2c2.1,0,3.6,0.9,4.4,2.5l-1.6,1c-0.7-1.1-1.7-1.7-3.1-1.7c-1.4,0-2.7,0.5-3.7,1.6
		c-1,1.1-1.5,2.4-1.5,4c0,1.1,0.3,2,1,2.6c0.7,0.6,1.6,1,2.7,1c0.8,0,1.4-0.1,2-0.3c0.6-0.2,1.1-0.6,1.8-1.2L361,233.3z"/>
	<path class="st2" d="M366.4,222.9h2.3l0.6-2.7h1.9l-0.6,2.7h4l-0.4,1.9h-4.1l-1.2,5.5c-0.2,0.9-0.3,1.5-0.3,1.9
		c0,1,0.5,1.4,1.5,1.4c0.8,0,1.6-0.3,2.2-1l1,1.3c-0.4,0.5-0.9,0.9-1.6,1.2c-0.7,0.3-1.4,0.5-2.1,0.5c-0.9,0-1.6-0.2-2.2-0.7
		c-0.5-0.5-0.8-1.1-0.8-1.9c0-0.5,0.1-1.2,0.3-2.1l1.2-6h-2.2L366.4,222.9z"/>
	<path class="st2" d="M380.2,223h1.9l-2.3,12.5h-1.9L380.2,223z M381,218.3c0.2-0.2,0.5-0.3,0.9-0.3c0.3,0,0.6,0.1,0.9,0.4
		c0.2,0.2,0.4,0.5,0.4,0.8c0,0.3-0.1,0.6-0.4,0.8c-0.2,0.2-0.5,0.3-0.9,0.3c-0.4,0-0.6-0.1-0.9-0.3c-0.2-0.2-0.3-0.5-0.3-0.8
		S380.8,218.5,381,218.3"/>
	<polygon class="st2" points="391.3,235.5 389.9,235.5 386.6,222.9 388.7,222.9 391.1,232.3 396.7,222.9 398.9,222.9 	"/>
	<path class="st2" d="M403.6,223h1.9l-2.3,12.5h-1.9L403.6,223z M404.4,218.3c0.2-0.2,0.5-0.3,0.9-0.3c0.3,0,0.6,0.1,0.9,0.4
		c0.2,0.2,0.4,0.5,0.4,0.8c0,0.3-0.1,0.6-0.4,0.8c-0.2,0.2-0.5,0.3-0.9,0.3c-0.4,0-0.6-0.1-0.9-0.3c-0.2-0.2-0.3-0.5-0.3-0.8
		S404.2,218.5,404.4,218.3"/>
	<path class="st2" d="M419,233.6c-0.3,0.5-0.9,0.9-1.6,1.4c-0.8,0.4-1.6,0.7-2.4,0.7c-1.6,0-2.8-0.5-3.6-1.4
		c-0.8-0.9-1.3-2.1-1.3-3.6c0-1.6,0.4-3,1.2-4.2c0.8-1.3,1.7-2.2,2.8-2.8c1.1-0.6,2.2-0.9,3.4-0.9c1.5,0,2.6,0.4,3.3,1.1l1.1-5.8
		h1.9l-3.2,17.6h-1.8L419,233.6z M417.7,233c0.7-0.5,1.2-1.1,1.6-1.8l1-5.5c-0.5-0.8-1.5-1.2-2.9-1.2c-1.4,0-2.6,0.6-3.7,1.7
		c-1.1,1.1-1.6,2.5-1.6,4.2c0,1.1,0.3,1.9,0.9,2.5c0.6,0.6,1.4,0.8,2.4,0.8C416.2,233.7,417,233.5,417.7,233"/>
	<path class="st2" d="M436,233.6c-0.4,0.5-0.9,1-1.6,1.4c-0.7,0.4-1.5,0.6-2.4,0.6c-1.5,0-2.7-0.5-3.5-1.4c-0.8-0.9-1.3-2.1-1.3-3.6
		c0-1.6,0.4-3,1.1-4.3c0.8-1.3,1.7-2.2,2.8-2.8c1.1-0.6,2.2-0.9,3.4-0.9c1.5,0,2.7,0.4,3.4,1.1l0.1-0.8h1.9l-2.5,12.5h-1.8
		L436,233.6z M436.3,231.2l1.2-5.5c-0.5-0.8-1.5-1.2-3-1.2c-1.4,0-2.6,0.5-3.7,1.6c-1.1,1.1-1.6,2.5-1.6,4.2c0,1.1,0.3,1.9,0.9,2.5
		c0.6,0.6,1.4,0.8,2.4,0.8C434,233.7,435.3,232.9,436.3,231.2"/>
	<path class="st2" d="M453.3,233.6c-0.3,0.5-0.9,0.9-1.6,1.4c-0.8,0.4-1.6,0.7-2.4,0.7c-1.6,0-2.8-0.5-3.6-1.4
		c-0.8-0.9-1.3-2.1-1.3-3.6c0-1.6,0.4-3,1.2-4.2c0.8-1.3,1.7-2.2,2.8-2.8c1.1-0.6,2.2-0.9,3.4-0.9c1.5,0,2.6,0.4,3.3,1.1l1.1-5.8
		h1.9l-3.2,17.6h-1.8L453.3,233.6z M451.9,233c0.7-0.5,1.2-1.1,1.6-1.8l1-5.5c-0.5-0.8-1.5-1.2-2.9-1.2c-1.4,0-2.6,0.6-3.7,1.7
		c-1.1,1.1-1.6,2.5-1.6,4.2c0,1.1,0.3,1.9,0.9,2.5c0.6,0.6,1.4,0.8,2.4,0.8C450.5,233.7,451.2,233.5,451.9,233"/>
	<path class="st2" d="M480.8,233.6c-0.4,0.5-0.9,1-1.6,1.4c-0.7,0.4-1.5,0.6-2.4,0.6c-1.5,0-2.7-0.5-3.5-1.4
		c-0.8-0.9-1.3-2.1-1.3-3.6c0-1.6,0.4-3,1.1-4.3c0.8-1.3,1.7-2.2,2.8-2.8c1.1-0.6,2.2-0.9,3.4-0.9c1.5,0,2.7,0.4,3.4,1.1l0.1-0.8
		h1.9l-2.5,12.5h-1.8L480.8,233.6z M481.1,231.2l1.2-5.5c-0.5-0.8-1.5-1.2-3-1.2c-1.4,0-2.6,0.5-3.7,1.6c-1.1,1.1-1.6,2.5-1.6,4.2
		c0,1.1,0.3,1.9,0.9,2.5c0.6,0.6,1.4,0.8,2.4,0.8C478.8,233.7,480.1,232.9,481.1,231.2"/>
	<path class="st2" d="M500,222.9h2.3l0.6-2.7h1.9l-0.6,2.7h4l-0.4,1.9h-4.1l-1.2,5.5c-0.2,0.9-0.3,1.5-0.3,1.9c0,1,0.5,1.4,1.5,1.4
		c0.8,0,1.6-0.3,2.2-1l1,1.3c-0.4,0.5-0.9,0.9-1.6,1.2c-0.7,0.3-1.4,0.5-2.1,0.5c-0.9,0-1.6-0.2-2.2-0.7c-0.5-0.5-0.8-1.1-0.8-1.9
		c0-0.5,0.1-1.2,0.3-2.1l1.2-6h-2.2L500,222.9z"/>
	<path class="st2" d="M521.8,235.5h-1.9l0.3-1.8c-1.1,1.3-2.6,2-4.4,2c-1.2,0-2.2-0.3-2.9-0.9c-0.7-0.6-1-1.4-1-2.5
		c0-0.6,0.1-1.3,0.2-2.1l1.5-7.2h1.9l-1.5,6.9c-0.1,0.7-0.2,1.3-0.2,1.8c0,0.7,0.2,1.2,0.6,1.6c0.4,0.4,1,0.6,1.9,0.6
		c1.8,0,3.2-0.9,4.3-2.7l1.6-8.1h1.9L521.8,235.5z"/>
	<path class="st2" d="M556.1,235.5h-1.9l1.5-7.7c0.1-0.5,0.1-1,0.1-1.4c0-0.5-0.2-1-0.5-1.3c-0.3-0.3-0.8-0.5-1.5-0.5
		c-1.5,0-2.8,0.8-3.7,2.3l-1.6,8.6h-1.9l1.6-8.3c0.1-0.8,0.1-1.4-0.3-1.9c-0.3-0.5-0.8-0.7-1.6-0.7c-0.9,0-1.6,0.3-2.3,0.8
		c-0.7,0.5-1.2,1.1-1.6,1.8l-1.6,8.3h-1.9l2.4-12.5h1.9l-0.3,1.6c1.1-1.3,2.4-1.9,3.9-1.9c1.7,0,2.8,0.6,3.2,1.9
		c1.2-1.3,2.6-1.9,4.2-1.9c1.1,0,1.9,0.3,2.6,0.8c0.7,0.5,1,1.3,1,2.4c0,0.4-0.1,0.8-0.1,1.3L556.1,235.5z"/>
	<path class="st2" d="M573.3,233.2c-0.6,0.8-1.4,1.4-2.3,1.8c-1,0.4-2,0.6-3,0.6c-1.6,0-2.8-0.5-3.8-1.4c-1-1-1.4-2.2-1.4-3.8
		c0-2.2,0.7-4,2.2-5.5c1.5-1.5,3.2-2.2,5.2-2.2c1.3,0,2.4,0.3,3.1,0.8c0.7,0.5,1.1,1.3,1.1,2.4c0,1.3-0.6,2.3-1.8,3.1
		c-1.2,0.8-2.8,1.2-4.9,1.2c-0.9,0-1.9-0.1-2.9-0.2v0.4c0,1.1,0.3,2,1,2.6c0.6,0.6,1.5,0.9,2.6,0.9c1.6,0,2.8-0.6,3.8-1.7
		L573.3,233.2z M567.1,225.6c-0.9,0.7-1.5,1.6-1.9,2.6c0.8,0.1,1.6,0.1,2.2,0.1c1.6,0,2.8-0.2,3.6-0.7c0.9-0.4,1.3-1,1.3-1.6
		c0-0.4-0.2-0.8-0.6-1.1c-0.4-0.3-1-0.4-1.7-0.4C568.9,224.6,568,224.9,567.1,225.6"/>
	<path class="st2" d="M587.6,233.6c-0.3,0.5-0.9,0.9-1.6,1.4c-0.8,0.4-1.6,0.7-2.4,0.7c-1.6,0-2.8-0.5-3.6-1.4
		c-0.8-0.9-1.3-2.1-1.3-3.6c0-1.6,0.4-3,1.2-4.2c0.8-1.3,1.7-2.2,2.8-2.8c1.1-0.6,2.2-0.9,3.4-0.9c1.5,0,2.6,0.4,3.3,1.1l1.1-5.8
		h1.9l-3.2,17.6h-1.8L587.6,233.6z M586.3,233c0.7-0.5,1.2-1.1,1.6-1.8l1-5.5c-0.5-0.8-1.5-1.2-2.9-1.2c-1.4,0-2.6,0.6-3.7,1.7
		c-1.1,1.1-1.6,2.5-1.6,4.2c0,1.1,0.3,1.9,0.9,2.5c0.6,0.6,1.4,0.8,2.4,0.8C584.8,233.7,585.6,233.5,586.3,233"/>
	<path class="st2" d="M597.7,223h1.9l-2.3,12.5h-1.9L597.7,223z M598.5,218.3c0.2-0.2,0.5-0.3,0.9-0.3c0.3,0,0.6,0.1,0.9,0.4
		c0.2,0.2,0.4,0.5,0.4,0.8c0,0.3-0.1,0.6-0.4,0.8c-0.2,0.2-0.5,0.3-0.9,0.3c-0.4,0-0.6-0.1-0.9-0.3c-0.2-0.2-0.3-0.5-0.3-0.8
		S598.2,218.5,598.5,218.3"/>
	<path class="st2" d="M613,233.6c-0.3,0.5-0.9,0.9-1.6,1.4c-0.8,0.4-1.6,0.7-2.4,0.7c-1.6,0-2.8-0.5-3.6-1.4
		c-0.8-0.9-1.3-2.1-1.3-3.6c0-1.6,0.4-3,1.2-4.2c0.8-1.3,1.7-2.2,2.8-2.8c1.1-0.6,2.2-0.9,3.4-0.9c1.5,0,2.6,0.4,3.3,1.1l1.1-5.8
		h1.9l-3.2,17.6h-1.8L613,233.6z M611.7,233c0.7-0.5,1.2-1.1,1.6-1.8l1-5.5c-0.5-0.8-1.5-1.2-2.9-1.2c-1.4,0-2.6,0.6-3.7,1.7
		c-1.1,1.1-1.6,2.5-1.6,4.2c0,1.1,0.3,1.9,0.9,2.5c0.6,0.6,1.4,0.8,2.4,0.8C610.3,233.7,611,233.5,611.7,233"/>
	<path class="st2" d="M630,233.6c-0.4,0.5-0.9,1-1.6,1.4c-0.7,0.4-1.5,0.6-2.4,0.6c-1.5,0-2.7-0.5-3.5-1.4c-0.8-0.9-1.3-2.1-1.3-3.6
		c0-1.6,0.4-3,1.1-4.3c0.8-1.3,1.7-2.2,2.8-2.8c1.1-0.6,2.2-0.9,3.4-0.9c1.5,0,2.7,0.4,3.4,1.1l0.1-0.8h1.9l-2.5,12.5h-1.8
		L630,233.6z M630.4,231.2l1.2-5.5c-0.5-0.8-1.5-1.2-3-1.2c-1.4,0-2.6,0.5-3.7,1.6c-1.1,1.1-1.6,2.5-1.6,4.2c0,1.1,0.3,1.9,0.9,2.5
		c0.6,0.6,1.4,0.8,2.4,0.8C628.1,233.7,629.4,232.9,630.4,231.2"/>
	<path class="st1" d="M557,196.2c0-2.3,0.8-4.2,2.4-5.7c3.7-3.7,7.4-7.4,11.1-11.1c3.4-3.4,3.4-8.3,0-11.7
		c-3.7-3.7-7.4-7.4-11.1-11.1c-3.3-3.3-3.3-8.4-0.1-11.6c3.2-3.2,8.3-3.1,11.6,0.2c7.5,7.5,14.9,14.9,22.4,22.4
		c3.4,3.4,3.4,8.4,0,11.8c-7.5,7.5-15,15-22.5,22.5c-3.3,3.3-8.5,3.2-11.7-0.2C557.8,200.3,557,198.4,557,196.2"/>
	<path class="st2" d="M595,196.2c0-2.3,0.8-4.2,2.4-5.7c3.7-3.7,7.4-7.4,11.1-11.1c3.4-3.4,3.4-8.3,0-11.7
		c-3.7-3.7-7.4-7.4-11.1-11.1c-3.3-3.3-3.3-8.4-0.1-11.6c3.2-3.2,8.3-3.1,11.6,0.2c7.5,7.5,14.9,14.9,22.4,22.4
		c3.4,3.4,3.4,8.4,0,11.8c-7.5,7.5-15,15-22.5,22.5c-3.3,3.3-8.5,3.2-11.7-0.2C595.8,200.3,595,198.4,595,196.2"/>
</g>
</svg>
